<?xml version="1.0" encoding="UTF-8"?>
<svg width="453px" height="97px" viewBox="0 0 453 97" version="1.1" xmlns="http://www.w3.org/2000/svg" xmlns:xlink="http://www.w3.org/1999/xlink">
    <!-- Generator: Sketch 39.1 (31720) - http://www.bohemiancoding.com/sketch -->
    <title>Group</title>
    <desc>Created with Sketch.</desc>
    <defs>
        <rect id="path-1" x="0" y="0" width="453" height="54" rx="8"></rect>
        <filter x="-50%" y="-50%" width="200%" height="200%" filterUnits="objectBoundingBox" id="filter-2">
            <feGaussianBlur stdDeviation="1.5" in="SourceAlpha" result="shadowBlurInner1"></feGaussianBlur>
            <feOffset dx="0" dy="1" in="shadowBlurInner1" result="shadowOffsetInner1"></feOffset>
            <feComposite in="shadowOffsetInner1" in2="SourceAlpha" operator="arithmetic" k2="-1" k3="1" result="shadowInnerInner1"></feComposite>
            <feColorMatrix values="0 0 0 0 0   0 0 0 0 0   0 0 0 0 0  0 0 0 0.5 0" type="matrix" in="shadowInnerInner1"></feColorMatrix>
        </filter>
        <path d="M87.1019062,21.359375 L84.1722187,24.2890625 C82.7972119,23.0546813 81.5237871,22.4375 80.3519062,22.4375 C79.5550273,22.4375 78.8948776,22.660154 78.3714375,23.1054688 C77.8479974,23.5507835 77.5862812,24.1015592 77.5862812,24.7578125 C77.5862812,25.3984407 77.8050291,25.9374978 78.2425312,26.375 C78.6800334,26.8281273 79.5940868,27.4374962 80.9847187,28.203125 C82.9691037,29.3125055 84.2972154,30.3281204 84.9690937,31.25 C85.6878473,32.1562545 86.0472187,33.3359302 86.0472187,34.7890625 C86.0472187,36.882823 85.3206635,38.5624937 83.8675312,39.828125 C82.3831488,41.0781312 80.4534806,41.703125 78.0784687,41.703125 C74.8440776,41.703125 72.1644169,40.2422021 70.0394062,37.3203125 L73.4378437,34.953125 C74.8284757,36.6250084 76.3128359,37.4609375 77.8909687,37.4609375 C78.7815982,37.4609375 79.4964348,37.2265648 80.0355,36.7578125 C80.5745652,36.2890602 80.8440937,35.6796913 80.8440937,34.9296875 C80.8440937,34.2734342 80.6175335,33.7421895 80.1644062,33.3359375 C79.9456552,33.1328115 79.5628465,32.8515643 79.0159687,32.4921875 C78.469091,32.1328107 77.7269109,31.7031275 76.7894062,31.203125 C75.133148,30.2812454 73.984722,29.3828169 73.3440937,28.5078125 C72.7034655,27.5859329 72.3831562,26.4609441 72.3831562,25.1328125 C72.3831562,23.1328025 73.1175239,21.4765691 74.5862812,20.1640625 C76.0550386,18.8515559 77.9222074,18.1953125 80.1878437,18.1953125 C82.6878562,18.1953125 84.9925207,19.2499895 87.1019062,21.359375 L87.1019062,21.359375 Z M100.672219,1.4140625 L98.2815937,20.796875 C100.359729,19.187492 102.469083,18.3828125 104.609719,18.3828125 C106.76598,18.3828125 108.484712,18.9531193 109.765969,20.09375 C111.0941,21.2187556 111.758156,22.6953034 111.758156,24.5234375 C111.758156,24.9609397 111.734719,25.4570285 111.687844,26.0117188 C111.640969,26.566409 111.578469,27.195309 111.500344,27.8984375 L109.883156,41 L104.703469,41 L106.344094,27.6171875 C106.437844,26.8984339 106.484719,26.2500029 106.484719,25.671875 C106.484719,23.7031152 105.32848,22.71875 103.015969,22.71875 C99.7034522,22.71875 97.773784,24.9609151 97.2269062,29.4453125 L95.7972187,41 L90.6175312,41 L95.4925312,1.4140625 L100.672219,1.4140625 Z M141.500344,18.921875 L138.781594,41 L133.601906,41 L133.906594,38.609375 C131.687833,40.5468847 129.390981,41.515625 127.015969,41.515625 C124.094079,41.515625 121.71129,40.5234474 119.867531,38.5390625 C118.023772,36.5546776 117.101906,33.9843908 117.101906,30.828125 C117.101906,27.1874818 118.156583,24.2031366 120.265969,21.875 C122.406604,19.5468634 125.148765,18.3828125 128.492531,18.3828125 C130.070664,18.3828125 131.414401,18.6406224 132.523781,19.15625 C133.648787,19.6718776 134.797213,20.5624937 135.969094,21.828125 L136.320656,18.921875 L141.500344,18.921875 Z M135.195656,29.328125 C135.195656,27.3749902 134.633162,25.7890686 133.508156,24.5703125 C132.383151,23.3359313 130.93004,22.71875 129.148781,22.71875 C127.211272,22.71875 125.586288,23.4765549 124.273781,24.9921875 C122.961275,26.5234452 122.305031,28.3984264 122.305031,30.6171875 C122.305031,32.5546972 122.851901,34.1406188 123.945656,35.375 C125.039412,36.6093812 126.445648,37.2265625 128.164406,37.2265625 C130.070666,37.2265625 131.719087,36.4531327 133.109719,34.90625 C134.500351,33.3281171 135.195656,31.4687607 135.195656,29.328125 L135.195656,29.328125 Z M173.117531,1.4140625 L168.242531,41 L163.086281,41 L163.367531,38.6328125 C162.086275,39.7734432 160.976911,40.546873 160.039406,40.953125 C159.117527,41.3281269 157.976913,41.515625 156.617531,41.515625 C153.523766,41.515625 150.992541,40.4921977 149.023781,38.4453125 C147.055021,36.3828022 146.070656,33.7265788 146.070656,30.4765625 C146.070656,27.0077952 147.14877,24.1250115 149.305031,21.828125 C151.461292,19.5312385 154.172202,18.3828125 157.437844,18.3828125 C159.109727,18.3828125 160.515963,18.6718721 161.656594,19.25 C162.8441,19.843753 164.086275,20.8515554 165.383156,22.2734375 L167.937844,1.4140625 L173.117531,1.4140625 Z M164.586281,29 C164.586281,27.1249906 164.008162,25.6093808 162.851906,24.453125 C161.69565,23.2968692 160.180041,22.71875 158.305031,22.71875 C156.273771,22.71875 154.5941,23.4765549 153.265969,24.9921875 C151.937837,26.5078201 151.273781,28.4218634 151.273781,30.734375 C151.273781,32.6875098 151.844088,34.2578066 152.984719,35.4453125 C154.125349,36.6171934 155.640959,37.203125 157.531594,37.203125 C159.500354,37.203125 161.164399,36.406258 162.523781,34.8125 C163.898788,33.2499922 164.586281,31.3125116 164.586281,29 L164.586281,29 Z M200.258156,29.75 C200.258156,33.1250169 199.086293,35.960926 196.742531,38.2578125 C194.414395,40.554699 191.539423,41.703125 188.117531,41.703125 C184.539388,41.703125 181.617543,40.6171984 179.351906,38.4453125 C177.070645,36.2578016 175.930031,33.4922042 175.930031,30.1484375 C175.930031,26.7265454 177.109707,23.8828238 179.469094,21.6171875 C181.844106,19.3359261 184.812826,18.1953125 188.375344,18.1953125 C191.875361,18.1953125 194.726895,19.2734267 196.930031,21.4296875 C199.148792,23.5546981 200.258156,26.3281079 200.258156,29.75 L200.258156,29.75 Z M195.031594,29.4921875 C195.031594,27.3671769 194.414412,25.6875062 193.180031,24.453125 C191.94565,23.1718686 190.328479,22.53125 188.328469,22.53125 C186.250333,22.53125 184.531601,23.2421804 183.172219,24.6640625 C181.812837,26.1015697 181.133156,27.9062391 181.133156,30.078125 C181.133156,32.2656359 181.773775,34.0234309 183.055031,35.3515625 C184.336288,36.7109443 185.992521,37.390625 188.023781,37.390625 C190.055041,37.390625 191.7269,36.6484449 193.039406,35.1640625 C194.367538,33.6953052 195.031594,31.8046991 195.031594,29.4921875 L195.031594,29.4921875 Z M238.414406,18.921875 L224.211281,43.3203125 L219.758156,29.0703125 L211.859719,43.3203125 L203.844094,18.921875 L209.305031,18.921875 L213.195656,32.3984375 L221.070656,18.3125 L225.289406,32.3984375 L232.531594,18.921875 L238.414406,18.921875 Z M256.866656,22.712 C255.266648,21.8799958 253.698664,21.464 252.162656,21.464 C251.362652,21.464 250.714659,21.6239984 250.218656,21.944 C249.722654,22.2640016 249.474656,22.6959973 249.474656,23.24 C249.474656,23.5280014 249.514656,23.7599991 249.594656,23.936 C249.674657,24.1120009 249.850655,24.2799992 250.122656,24.44 C250.394658,24.6000008 250.794654,24.7439994 251.322656,24.872 C251.850659,25.0000006 252.546652,25.159999 253.410656,25.352 C255.810668,25.8320024 257.60265,26.6879938 258.786656,27.92 C259.970662,29.1520062 260.562656,30.7279904 260.562656,32.648 C260.562656,34.0880072 260.274659,35.3839942 259.698656,36.536 C259.122653,37.6880058 258.322661,38.6559961 257.298656,39.44 C256.274651,40.2240039 255.042663,40.8319978 253.602656,41.264 C252.162649,41.6960022 250.578665,41.912 248.850656,41.912 C245.52264,41.912 242.242672,40.9680094 239.010656,39.08 L242.178656,32.936 C244.610668,34.6000083 246.914645,35.432 249.090656,35.432 C249.89066,35.432 250.546654,35.2560018 251.058656,34.904 C251.570659,34.5519982 251.826656,34.1040027 251.826656,33.56 C251.826656,33.2399984 251.786657,32.976001 251.706656,32.768 C251.626656,32.559999 251.458658,32.3680009 251.202656,32.192 C250.946655,32.0159991 250.570659,31.8560007 250.074656,31.712 C249.578654,31.5679993 248.93066,31.4160008 248.130656,31.256 C245.442643,30.7119973 243.562662,29.9040054 242.490656,28.832 C241.418651,27.7599946 240.882656,26.2800094 240.882656,24.392 C240.882656,23.0159931 241.138654,21.7760055 241.650656,20.672 C242.162659,19.5679945 242.898651,18.6320038 243.858656,17.864 C244.818661,17.0959962 245.978649,16.5040021 247.338656,16.088 C248.698663,15.6719979 250.210648,15.464 251.874656,15.464 C254.59467,15.464 257.234643,15.9919947 259.794656,17.048 L256.866656,22.712 Z M283.554656,24.344 C282.050649,23.3199949 280.530664,22.808 278.994656,22.808 C278.162652,22.808 277.38666,22.9519986 276.666656,23.24 C275.946653,23.5280014 275.314659,23.9359974 274.770656,24.464 C274.226654,24.9920026 273.802658,25.6159964 273.498656,26.336 C273.194655,27.0560036 273.042656,27.8639955 273.042656,28.76 C273.042656,29.6240043 273.194655,30.4159964 273.498656,31.136 C273.802658,31.8560036 274.218654,32.4799974 274.746656,33.008 C275.274659,33.5360026 275.906653,33.9439986 276.642656,34.232 C277.37866,34.5200014 278.162652,34.664 278.994656,34.664 C280.626664,34.664 282.146649,34.1040056 283.554656,32.984 L283.554656,40.376 C281.410646,41.3040046 279.378666,41.768 277.458656,41.768 C275.666647,41.768 273.962664,41.464003 272.346656,40.856 C270.730648,40.247997 269.306662,39.3760057 268.074656,38.24 C266.84265,37.1039943 265.85866,35.7440079 265.122656,34.16 C264.386653,32.5759921 264.018656,30.8080098 264.018656,28.856 C264.018656,26.9039902 264.370653,25.1200081 265.074656,23.504 C265.77866,21.8879919 266.73865,20.4960058 267.954656,19.328 C269.170662,18.1599942 270.618648,17.2480033 272.298656,16.592 C273.978665,15.9359967 275.778647,15.608 277.698656,15.608 C279.810667,15.608 281.762647,16.0559955 283.554656,16.952 L283.554656,24.344 Z M296.562656,28.616 C296.562656,29.416004 296.706655,30.1599966 296.994656,30.848 C297.282658,31.5360034 297.674654,32.1359974 298.170656,32.648 C298.666659,33.1600026 299.258653,33.5599986 299.946656,33.848 C300.63466,34.1360014 301.378652,34.28 302.178656,34.28 C302.94666,34.28 303.674653,34.1360014 304.362656,33.848 C305.05066,33.5599986 305.642654,33.1600026 306.138656,32.648 C306.634659,32.1359974 307.034655,31.5440034 307.338656,30.872 C307.642658,30.1999966 307.794656,29.4800038 307.794656,28.712 C307.794656,27.9439962 307.642658,27.2160034 307.338656,26.528 C307.034655,25.8399966 306.634659,25.2400026 306.138656,24.728 C305.642654,24.2159974 305.05066,23.8160014 304.362656,23.528 C303.674653,23.2399986 302.94666,23.096 302.178656,23.096 C301.378652,23.096 300.63466,23.2399986 299.946656,23.528 C299.258653,23.8160014 298.666659,24.2159974 298.170656,24.728 C297.674654,25.2400026 297.282658,25.8239967 296.994656,26.48 C296.706655,27.1360033 296.562656,27.8479962 296.562656,28.616 L296.562656,28.616 Z M307.506656,16.376 L316.242656,16.376 L316.242656,41 L307.506656,41 L307.506656,38.264 C305.650647,40.6000117 303.138672,41.768 299.970656,41.768 C298.178647,41.768 296.530664,41.4400033 295.026656,40.784 C293.522649,40.1279967 292.210662,39.2080059 291.090656,38.024 C289.970651,36.8399941 289.098659,35.448008 288.474656,33.848 C287.850653,32.247992 287.538656,30.5040094 287.538656,28.616 C287.538656,26.8559912 287.842653,25.1840079 288.450656,23.6 C289.058659,22.0159921 289.906651,20.6320059 290.994656,19.448 C292.082662,18.2639941 293.378649,17.3280034 294.882656,16.64 C296.386664,15.9519966 298.050647,15.608 299.874656,15.608 C302.946672,15.608 305.490646,16.6799893 307.506656,18.824 L307.506656,16.376 Z M341.778656,28.76 C341.778656,27.9919962 341.642658,27.2640034 341.370656,26.576 C341.098655,25.8879966 340.706659,25.2880026 340.194656,24.776 C339.682654,24.2639974 339.08266,23.8560015 338.394656,23.552 C337.706653,23.2479985 336.96266,23.096 336.162656,23.096 C335.394652,23.096 334.67466,23.2399986 334.002656,23.528 C333.330653,23.8160014 332.746659,24.2159974 332.250656,24.728 C331.754654,25.2400026 331.354658,25.8399966 331.050656,26.528 C330.746655,27.2160034 330.594656,27.9439962 330.594656,28.712 C330.594656,29.4800038 330.738655,30.1999966 331.026656,30.872 C331.314658,31.5440034 331.714654,32.1279975 332.226656,32.624 C332.738659,33.1200025 333.338653,33.5199985 334.026656,33.824 C334.71466,34.1280015 335.442652,34.28 336.210656,34.28 C336.97866,34.28 337.698653,34.1360014 338.370656,33.848 C339.04266,33.5599986 339.626654,33.1600026 340.122656,32.648 C340.618659,32.1359974 341.018655,31.5440034 341.322656,30.872 C341.626658,30.1999966 341.778656,29.4960037 341.778656,28.76 L341.778656,28.76 Z M330.834656,53.288 L322.146656,53.288 L322.146656,16.376 L330.834656,16.376 L330.834656,19.112 C332.690666,16.7759883 335.21864,15.608 338.418656,15.608 C340.178665,15.608 341.818649,15.9519966 343.338656,16.64 C344.858664,17.3280034 346.178651,18.2639941 347.298656,19.448 C348.418662,20.6320059 349.290653,22.023992 349.914656,23.624 C350.538659,25.224008 350.850656,26.9359909 350.850656,28.76 C350.850656,30.5840091 350.538659,32.2799922 349.914656,33.848 C349.290653,35.4160078 348.426662,36.7919941 347.322656,37.976 C346.218651,39.1600059 344.914664,40.0879966 343.410656,40.76 C341.906649,41.4320034 340.274665,41.768 338.514656,41.768 C335.442641,41.768 332.882666,40.7120106 330.834656,38.6 L330.834656,53.288 Z M373.794656,25.112 C373.506655,23.8959939 372.914661,22.9200037 372.018656,22.184 C371.122652,21.4479963 370.034663,21.08 368.754656,21.08 C367.41065,21.08 366.31466,21.4319965 365.466656,22.136 C364.618652,22.8400035 364.082657,23.8319936 363.858656,25.112 L373.794656,25.112 Z M363.618656,30.152 C363.618656,33.8960187 365.378639,35.768 368.898656,35.768 C370.786666,35.768 372.210651,35.0000077 373.170656,33.464 L381.570656,33.464 C379.874648,39.0960282 375.63469,41.912 368.850656,41.912 C366.770646,41.912 364.866665,41.6000031 363.138656,40.976 C361.410648,40.3519969 359.930662,39.4640058 358.698656,38.312 C357.46665,37.1599942 356.51466,35.784008 355.842656,34.184 C355.170653,32.583992 354.834656,30.7920099 354.834656,28.808 C354.834656,26.7599898 355.154653,24.9120082 355.794656,23.264 C356.434659,21.6159918 357.34665,20.2160058 358.530656,19.064 C359.714662,17.9119942 361.146648,17.0240031 362.826656,16.4 C364.506665,15.7759969 366.402646,15.464 368.514656,15.464 C370.594667,15.464 372.466648,15.7759969 374.130656,16.4 C375.794665,17.0240031 377.20265,17.9279941 378.354656,19.112 C379.506662,20.2960059 380.386653,21.7439914 380.994656,23.456 C381.602659,25.1680086 381.906656,27.0959893 381.906656,29.24 L381.906656,30.152 L363.618656,30.152 Z" id="path-3"></path>
        <filter x="-50%" y="-50%" width="200%" height="200%" filterUnits="objectBoundingBox" id="filter-4">
            <feGaussianBlur stdDeviation="1.5" in="SourceAlpha" result="shadowBlurInner1"></feGaussianBlur>
            <feOffset dx="0" dy="1" in="shadowBlurInner1" result="shadowOffsetInner1"></feOffset>
            <feComposite in="shadowOffsetInner1" in2="SourceAlpha" operator="arithmetic" k2="-1" k3="1" result="shadowInnerInner1"></feComposite>
            <feColorMatrix values="0 0 0 0 1   0 0 0 0 1   0 0 0 0 1  0 0 0 1 0" type="matrix" in="shadowInnerInner1"></feColorMatrix>
        </filter>
    </defs>
    <g id="Page-1" stroke="none" stroke-width="1" fill="none" fill-rule="evenodd">
        <g id="Tablet-Portrait" transform="translate(-161.000000, -422.000000)">
            <g id="Group" transform="translate(161.000000, 422.000000)">
                <g id="Rectangle-2">
                    <use fill="#A8061A" fill-rule="evenodd" xlink:href="#path-1"></use>
                    <use fill="black" fill-opacity="1" filter="url(#filter-2)" xlink:href="#path-1"></use>
                </g>
                <g id="shadowscape">
                    <use fill="#DACA00" fill-rule="evenodd" xlink:href="#path-3"></use>
                    <use fill="black" fill-opacity="1" filter="url(#filter-4)" xlink:href="#path-3"></use>
                </g>
                <path d="M170.171875,58.5058594 L169.166016,66.6503906 C169.732425,66.2272114 170.223956,65.9440111 170.640625,65.8007812 C171.076825,65.6510409 171.548826,65.5761719 172.056641,65.5761719 C173.306647,65.5761719 174.338538,66.0058551 175.152344,66.8652344 C175.96615,67.7181032 176.373047,68.8053319 176.373047,70.1269531 C176.373047,71.5787833 175.910812,72.7864535 174.986328,73.75 C174.055334,74.7265674 172.919278,75.2148438 171.578125,75.2148438 C170.328119,75.2148438 169.23438,74.7330777 168.296875,73.7695312 L168.140625,75 L165.982422,75 L168.013672,58.5058594 L170.171875,58.5058594 Z M174.205078,70.1757812 C174.205078,69.3554646 173.96094,68.6848984 173.472656,68.1640625 C172.984373,67.6432266 172.349613,67.3828125 171.568359,67.3828125 C170.722001,67.3828125 170.022138,67.6953094 169.46875,68.3203125 C168.915362,68.9322947 168.638672,69.7233024 168.638672,70.6933594 C168.638672,71.5071655 168.8763,72.1614559 169.351562,72.65625 C169.826825,73.164065 170.445309,73.4179688 171.207031,73.4179688 C172.046879,73.4179688 172.753252,73.1022167 173.326172,72.4707031 C173.912112,71.8391896 174.205078,71.0742232 174.205078,70.1757812 L174.205078,70.1757812 Z M188.238281,65.8007812 L179.908203,80.2636719 L177.447266,80.2636719 L181.148438,73.8574219 L177.857422,65.8007812 L180.162109,65.8007812 L182.4375,71.6796875 L185.767578,65.8007812 L188.238281,65.8007812 Z" id="by" fill="#A8061A"></path>
                <path d="M196.713476,74.7265625 L203.358008,74.7265625 L203.358008,75.78125 C203.358008,81.0664327 202.895122,84.6347564 201.969336,86.4863281 C201.055269,88.3847751 199.344348,89.3339844 196.836523,89.3339844 C194.246667,89.3339844 192.400982,88.2793074 191.299414,86.1699219 C190.209565,84.0605363 189.664648,80.5156499 189.664648,75.5351562 C189.664648,69.8398153 190.262299,66.0488376 191.457617,64.1621094 C192.582623,62.3925693 194.311121,61.5078125 196.643164,61.5078125 C198.424423,61.5078125 199.813081,61.9355426 200.80918,62.7910156 C201.816997,63.6582075 202.602145,65.0820213 203.164648,67.0625 L199.754492,68.4863281 C199.602148,67.7714808 199.432227,67.1709009 199.244726,66.6845703 C199.057225,66.1982398 198.852149,65.8203138 198.629492,65.5507812 C198.184177,64.9999972 197.516215,64.7246094 196.625586,64.7246094 C195.40683,64.7246094 194.574807,65.4746019 194.129492,66.9746094 C193.684177,68.5449297 193.461523,71.3632609 193.461523,75.4296875 C193.461523,79.5429893 193.690037,82.3261646 194.14707,83.7792969 C194.604104,85.2324291 195.465423,85.9589844 196.731055,85.9589844 C197.891217,85.9589844 198.705662,85.4433645 199.174414,84.4121094 C199.654885,83.3105414 199.895117,81.5410278 199.895117,79.1035156 L199.895117,78.3652344 L199.895117,77.8203125 L196.713476,77.8203125 L196.713476,74.7265625 Z M204.50332,70.8066406 L207.860742,70.8066406 L207.860742,73.0742188 C208.434964,72.1132764 209.003317,71.4394551 209.56582,71.0527344 C210.128323,70.6660137 210.872456,70.4433597 211.798242,70.3847656 L211.798242,73.9003906 C211.563866,73.8652342 211.364649,73.8476562 211.200586,73.8476562 C209.993549,73.8476562 209.132229,74.1582 208.616601,74.7792969 C208.112693,75.3886749 207.860742,76.4550705 207.860742,77.9785156 L207.860742,89 L204.50332,89 L204.50332,70.8066406 Z M222.664258,80.0527344 C222.664258,86.2051089 220.75998,89.28125 216.951367,89.28125 C213.142754,89.28125 211.238477,86.1582344 211.238477,79.9121094 C211.238477,73.6425468 213.136895,70.5078125 216.933789,70.5078125 C217.918169,70.5078125 218.770699,70.6953106 219.491406,71.0703125 C220.212113,71.4453144 220.806834,72.0253867 221.275586,72.8105469 C221.744338,73.5957071 222.092968,74.5859315 222.321484,75.78125 C222.550001,76.9765685 222.664258,78.4003824 222.664258,80.0527344 L222.664258,80.0527344 Z M219.183789,79.9648438 C219.183789,77.5742068 219.025587,75.9101609 218.70918,74.9726562 C218.392772,74.0234328 217.830277,73.5488281 217.02168,73.5488281 C216.224801,73.5488281 215.656447,74.0175734 215.316602,74.9550781 C215.000194,75.8925828 214.841992,77.5273321 214.841992,79.859375 C214.841992,82.1914179 215.000194,83.8203079 215.316602,84.7460938 C215.656447,85.6835984 216.224801,86.1523438 217.02168,86.1523438 C217.818559,86.1523438 218.375194,85.6894578 218.691602,84.7636719 C219.019728,83.89648 219.183789,82.2968867 219.183789,79.9648438 L219.183789,79.9648438 Z M223.493164,70.8066406 L226.850586,70.8066406 L226.850586,82.9707031 C226.874024,84.0957088 227.041014,84.8984351 227.351562,85.3789062 C227.662111,85.8593774 228.18066,86.0996094 228.907227,86.0996094 C229.668949,86.0996094 230.202147,85.888674 230.506836,85.4667969 C230.811525,85.0214821 230.963867,84.2480524 230.963867,83.1464844 L230.963867,81.6875 L230.963867,70.8066406 L234.321289,70.8066406 L234.321289,81.6875 C234.321289,84.2304815 234.133791,85.9296832 233.758789,86.7851562 C232.973629,88.4492271 231.344739,89.28125 228.87207,89.28125 C226.926748,89.28125 225.543949,88.7890674 224.723633,87.8046875 C223.903316,86.8085888 223.493164,85.1504022 223.493164,82.8300781 L223.493164,70.8066406 Z M235.818164,96.453125 L235.818164,70.8066406 L239.175586,70.8066406 L239.175586,73.1621094 C239.644338,72.1660106 240.124802,71.4746113 240.616992,71.0878906 C241.109182,70.7011699 241.753707,70.5078125 242.550586,70.5078125 C244.050593,70.5078125 245.149215,71.2841719 245.846484,72.8369141 C246.543754,74.3896562 246.892383,76.8183429 246.892383,80.1230469 C246.892383,83.357438 246.534965,85.6835867 245.820117,87.1015625 C245.116989,88.5546948 243.986141,89.28125 242.427539,89.28125 C241.677535,89.28125 241.062307,89.1113298 240.581836,88.7714844 C240.34746,88.6074211 240.113087,88.3730484 239.878711,88.0683594 C239.644335,87.7636704 239.409962,87.3945334 239.175586,86.9609375 L239.175586,96.453125 L235.818164,96.453125 Z M243.411914,80 C243.411914,77.5273314 243.247853,75.8515669 242.919727,74.9726562 C242.603319,74.0234328 242.034965,73.5488281 241.214648,73.5488281 C240.441207,73.5488281 239.890431,74.0410107 239.562305,75.0253906 C239.234178,75.9394577 239.070117,77.5683477 239.070117,79.9121094 C239.070117,82.2558711 239.234178,83.8847611 239.562305,84.7988281 C239.90215,85.7714892 240.452926,86.2578125 241.214648,86.2578125 C242.011527,86.2578125 242.579881,85.7890672 242.919727,84.8515625 C243.247853,83.9843707 243.411914,82.3671993 243.411914,80 L243.411914,80 Z M256.425195,69.1367188 L252.944727,69.1367188 L252.944727,68.4160156 C252.944727,67.2089783 253.047265,66.1718793 253.252344,65.3046875 C253.457423,64.4374957 253.779685,63.7226591 254.219141,63.1601562 C254.658596,62.5976534 255.218161,62.1845716 255.897852,61.9208984 C256.577543,61.6572252 257.391988,61.5253906 258.341211,61.5253906 C260.333409,61.5253906 261.786519,62.087885 262.700586,63.2128906 C263.614653,64.3378963 264.07168,66.1249878 264.07168,68.5742188 C264.07168,70.5898538 263.860744,72.0429643 263.438867,72.9335938 C263.028709,73.835942 262.237701,74.521482 261.06582,74.9902344 C262.331452,75.4238303 263.20449,76.0976517 263.684961,77.0117188 C264.165432,77.914067 264.405664,79.3613182 264.405664,81.3535156 C264.405664,84.083998 263.890044,86.0937436 262.858789,87.3828125 C261.827534,88.6718814 260.222081,89.3164062 258.042383,89.3164062 C254.315802,89.3164062 252.452539,87.1777558 252.452539,82.9003906 L252.452539,82.6191406 L252.452539,82.4257812 C252.452539,82.2968744 252.458399,82.2148439 252.470117,82.1796875 L255.897852,82.1796875 C255.886133,82.3789072 255.877344,82.5517571 255.871485,82.6982422 C255.865625,82.8447273 255.862695,82.9648433 255.862695,83.0585938 C255.862695,83.9843796 256.064842,84.7226535 256.469141,85.2734375 C256.87344,85.8242215 257.427145,86.0996094 258.130274,86.0996094 C258.587307,86.0996094 258.976952,86.00879 259.299219,85.8271484 C259.621486,85.6455069 259.885155,85.3525411 260.090235,84.9482422 C260.295314,84.5439433 260.444726,84.0195345 260.538477,83.375 C260.632227,82.7304655 260.679102,81.9511764 260.679102,81.0371094 C260.679102,79.3847574 260.430081,78.1953161 259.932031,77.46875 C259.433982,76.7421839 258.604889,76.3789062 257.444727,76.3789062 C257.31582,76.3789062 257.175196,76.3876952 257.022852,76.4052734 C256.870507,76.4228517 256.694728,76.4433593 256.495508,76.4667969 L256.495508,73.3027344 L257.005274,73.3027344 C258.423249,73.3027344 259.384177,72.9980499 259.888086,72.3886719 C260.391995,71.7792938 260.643945,70.6250085 260.643945,68.9257812 C260.643945,66.1132672 259.934968,64.7070312 258.516992,64.7070312 C257.110735,64.7070312 256.407617,65.9081911 256.407617,68.3105469 L256.425195,69.1367188 Z" id="Group-3" fill="#A8061A"></path>
            </g>
        </g>
    </g>
</svg>