<?xml version="1.0" encoding="UTF-8"?>
<svg width="214px" height="214px" viewBox="0 0 214 214" version="1.1" xmlns="http://www.w3.org/2000/svg" xmlns:xlink="http://www.w3.org/1999/xlink">
    <!-- Generator: Sketch 39.1 (31720) - http://www.bohemiancoding.com/sketch -->
    <title>Group</title>
    <desc>Created with Sketch.</desc>
    <defs>
        <circle id="path-1" cx="107" cy="107" r="107"></circle>
        <filter x="-50%" y="-50%" width="200%" height="200%" filterUnits="objectBoundingBox" id="filter-2">
            <feGaussianBlur stdDeviation="2" in="SourceAlpha" result="shadowBlurInner1"></feGaussianBlur>
            <feOffset dx="4" dy="0" in="shadowBlurInner1" result="shadowOffsetInner1"></feOffset>
            <feComposite in="shadowOffsetInner1" in2="SourceAlpha" operator="arithmetic" k2="-1" k3="1" result="shadowInnerInner1"></feComposite>
            <feColorMatrix values="0 0 0 0 0   0 0 0 0 0   0 0 0 0 0  0 0 0 0.435603487 0" type="matrix" in="shadowInnerInner1"></feColorMatrix>
        </filter>
        <path d="M78.2579966,129 L78.5139966,96.936 L78.3219966,96.936 L66.5459966,129 L58.8659966,129 L47.4099966,96.936 L47.2179966,96.936 L47.4739966,129 L37.1699966,129 L37.1699966,83.688 L52.7219966,83.688 L63.0259966,112.744 L63.2819966,112.744 L73.1379966,83.688 L88.9459966,83.688 L88.9459966,129 L78.2579966,129 Z M138.141999,106.152 C138.141999,109.736018 137.523338,113.010652 136.285999,115.976 C135.048659,118.941348 133.331343,121.479989 131.133999,123.592 C128.936655,125.704011 126.323347,127.335994 123.293999,128.488 C120.26465,129.640006 116.97935,130.216 113.437999,130.216 C109.896648,130.216 106.622014,129.640006 103.613999,128.488 C100.605984,127.335994 98.0033432,125.704011 95.8059989,123.592 C93.6086545,121.479989 91.8913384,118.941348 90.6539989,115.976 C89.4166593,113.010652 88.7979989,109.736018 88.7979989,106.152 C88.7979989,102.525315 89.4166593,99.2506813 90.6539989,96.328 C91.8913384,93.4053187 93.6086545,90.9200102 95.8059989,88.872 C98.0033432,86.8239898 100.605984,85.2453389 103.613999,84.136 C106.622014,83.0266611 109.896648,82.472 113.437999,82.472 C116.97935,82.472 120.26465,83.0266611 123.293999,84.136 C126.323347,85.2453389 128.936655,86.8239898 131.133999,88.872 C133.331343,90.9200102 135.048659,93.4053187 136.285999,96.328 C137.523338,99.2506813 138.141999,102.525315 138.141999,106.152 L138.141999,106.152 Z M126.429999,106.152 C126.429999,104.189324 126.110002,102.354675 125.469999,100.648 C124.829996,98.9413248 123.944671,97.4800061 122.813999,96.264 C121.683327,95.0479939 120.318007,94.0880035 118.717999,93.384 C117.117991,92.6799965 115.358008,92.328 113.437999,92.328 C111.517989,92.328 109.768673,92.6799965 108.189999,93.384 C106.611324,94.0880035 105.246005,95.0479939 104.093999,96.264 C102.941993,97.4800061 102.056669,98.9413248 101.437999,100.648 C100.819329,102.354675 100.509999,104.189324 100.509999,106.152 C100.509999,108.20001 100.829996,110.087991 101.469999,111.816 C102.110002,113.544009 102.995327,115.02666 104.125999,116.264 C105.256671,117.50134 106.611324,118.471996 108.189999,119.176 C109.768673,119.880004 111.517989,120.232 113.437999,120.232 C115.358008,120.232 117.107324,119.880004 118.685999,119.176 C120.264673,118.471996 121.629993,117.50134 122.781999,116.264 C123.934005,115.02666 124.829996,113.544009 125.469999,111.816 C126.110002,110.087991 126.429999,108.20001 126.429999,106.152 L126.429999,106.152 Z M166.794001,129 L148.554001,99.368 L148.362001,99.368 L148.618001,129 L137.994001,129 L137.994001,83.688 L150.474001,83.688 L168.650001,113.256 L168.842001,113.256 L168.586001,83.688 L179.210001,83.688 L179.210001,129 L166.794001,129 Z" id="path-3"></path>
        <filter x="-50%" y="-50%" width="200%" height="200%" filterUnits="objectBoundingBox" id="filter-4">
            <feGaussianBlur stdDeviation="0.5" in="SourceAlpha" result="shadowBlurInner1"></feGaussianBlur>
            <feOffset dx="3" dy="1" in="shadowBlurInner1" result="shadowOffsetInner1"></feOffset>
            <feComposite in="shadowOffsetInner1" in2="SourceAlpha" operator="arithmetic" k2="-1" k3="1" result="shadowInnerInner1"></feComposite>
            <feColorMatrix values="0 0 0 0 1   0 0 0 0 1   0 0 0 0 1  0 0 0 1 0" type="matrix" in="shadowInnerInner1"></feColorMatrix>
        </filter>
    </defs>
    <g id="Page-1" stroke="none" stroke-width="1" fill="none" fill-rule="evenodd">
        <g id="Tablet-Portrait" transform="translate(-42.000000, -61.000000)">
            <g id="Group" transform="translate(42.000000, 61.000000)">
                <g id="Oval">
                    <use fill="#A80519" fill-rule="evenodd" xlink:href="#path-1"></use>
                    <use fill="black" fill-opacity="1" filter="url(#filter-2)" xlink:href="#path-1"></use>
                </g>
                <g id="MON">
                    <use fill="#DBCA00" fill-rule="evenodd" xlink:href="#path-3"></use>
                    <use fill="black" fill-opacity="1" filter="url(#filter-4)" xlink:href="#path-3"></use>
                </g>
            </g>
        </g>
    </g>
</svg>