<?xml version="1.0" encoding="UTF-8"?>
<svg width="214px" height="214px" viewBox="0 0 214 214" version="1.1" xmlns="http://www.w3.org/2000/svg" xmlns:xlink="http://www.w3.org/1999/xlink">
    <!-- Generator: Sketch 39.1 (31720) - http://www.bohemiancoding.com/sketch -->
    <title>Group Copy 8</title>
    <desc>Created with Sketch.</desc>
    <defs>
        <circle id="path-1" cx="107" cy="107" r="107"></circle>
        <filter x="-50%" y="-50%" width="200%" height="200%" filterUnits="objectBoundingBox" id="filter-2">
            <feGaussianBlur stdDeviation="2" in="SourceAlpha" result="shadowBlurInner1"></feGaussianBlur>
            <feOffset dx="4" dy="0" in="shadowBlurInner1" result="shadowOffsetInner1"></feOffset>
            <feComposite in="shadowOffsetInner1" in2="SourceAlpha" operator="arithmetic" k2="-1" k3="1" result="shadowInnerInner1"></feComposite>
            <feColorMatrix values="0 0 0 0 0   0 0 0 0 0   0 0 0 0 0  0 0 0 0.435603487 0" type="matrix" in="shadowInnerInner1"></feColorMatrix>
        </filter>
        <path d="M63.2299966,132 L44.9899966,102.368 L44.7979966,102.368 L45.0539966,132 L34.4299966,132 L34.4299966,86.688 L46.9099966,86.688 L65.0859966,116.256 L65.2779966,116.256 L65.0219966,86.688 L75.6459966,86.688 L75.6459966,132 L63.2299966,132 Z M124.841999,109.152 C124.841999,112.736018 124.223338,116.010652 122.985999,118.976 C121.748659,121.941348 120.031343,124.479989 117.833999,126.592 C115.636655,128.704011 113.023347,130.335994 109.993999,131.488 C106.96465,132.640006 103.67935,133.216 100.137999,133.216 C96.5966478,133.216 93.3220139,132.640006 90.3139989,131.488 C87.3059838,130.335994 84.7033432,128.704011 82.5059989,126.592 C80.3086545,124.479989 78.5913384,121.941348 77.3539989,118.976 C76.1166593,116.010652 75.4979989,112.736018 75.4979989,109.152 C75.4979989,105.525315 76.1166593,102.250681 77.3539989,99.328 C78.5913384,96.4053187 80.3086545,93.9200102 82.5059989,91.872 C84.7033432,89.8239898 87.3059838,88.2453389 90.3139989,87.136 C93.3220139,86.0266611 96.5966478,85.472 100.137999,85.472 C103.67935,85.472 106.96465,86.0266611 109.993999,87.136 C113.023347,88.2453389 115.636655,89.8239898 117.833999,91.872 C120.031343,93.9200102 121.748659,96.4053187 122.985999,99.328 C124.223338,102.250681 124.841999,105.525315 124.841999,109.152 L124.841999,109.152 Z M113.129999,109.152 C113.129999,107.189324 112.810002,105.354675 112.169999,103.648 C111.529996,101.941325 110.644671,100.480006 109.513999,99.264 C108.383327,98.0479939 107.018007,97.0880035 105.417999,96.384 C103.817991,95.6799965 102.058008,95.328 100.137999,95.328 C98.2179893,95.328 96.4686734,95.6799965 94.8899989,96.384 C93.3113243,97.0880035 91.9460046,98.0479939 90.7939989,99.264 C89.6419931,100.480006 88.7566686,101.941325 88.1379989,103.648 C87.5193291,105.354675 87.2099989,107.189324 87.2099989,109.152 C87.2099989,111.20001 87.5299957,113.087991 88.1699989,114.816 C88.8100021,116.544009 89.6953265,118.02666 90.8259989,119.264 C91.9566712,120.50134 93.3113243,121.471996 94.8899989,122.176 C96.4686734,122.880004 98.2179893,123.232 100.137999,123.232 C102.058008,123.232 103.807324,122.880004 105.385999,122.176 C106.964673,121.471996 108.329993,120.50134 109.481999,119.264 C110.634005,118.02666 111.529996,116.544009 112.169999,114.816 C112.810002,113.087991 113.129999,111.20001 113.129999,109.152 L113.129999,109.152 Z M172.694001,132 L161.878001,132 L152.918001,101.344 L152.726001,101.344 L143.766001,132 L132.886001,132 L120.022001,86.688 L131.798001,86.688 L138.966001,116.832 L139.158001,116.832 L147.222001,86.688 L158.614001,86.688 L166.742001,116.832 L166.934001,116.832 L174.230001,86.688 L185.622001,86.688 L172.694001,132 Z" id="path-3"></path>
        <filter x="-50%" y="-50%" width="200%" height="200%" filterUnits="objectBoundingBox" id="filter-4">
            <feGaussianBlur stdDeviation="0.5" in="SourceAlpha" result="shadowBlurInner1"></feGaussianBlur>
            <feOffset dx="3" dy="1" in="shadowBlurInner1" result="shadowOffsetInner1"></feOffset>
            <feComposite in="shadowOffsetInner1" in2="SourceAlpha" operator="arithmetic" k2="-1" k3="1" result="shadowInnerInner1"></feComposite>
            <feColorMatrix values="0 0 0 0 1   0 0 0 0 1   0 0 0 0 1  0 0 0 1 0" type="matrix" in="shadowInnerInner1"></feColorMatrix>
        </filter>
    </defs>
    <g id="Page-1" stroke="none" stroke-width="1" fill="none" fill-rule="evenodd">
        <g id="Tablet-Portrait" transform="translate(-538.000000, -535.000000)">
            <g id="Group-Copy-8" transform="translate(538.000000, 535.000000)">
                <g id="Oval">
                    <use fill="#A80519" fill-rule="evenodd" xlink:href="#path-1"></use>
                    <use fill="black" fill-opacity="1" filter="url(#filter-2)" xlink:href="#path-1"></use>
                </g>
                <g id="NOW">
                    <use fill="#DBCA00" fill-rule="evenodd" xlink:href="#path-3"></use>
                    <use fill="black" fill-opacity="1" filter="url(#filter-4)" xlink:href="#path-3"></use>
                </g>
            </g>
        </g>
    </g>
</svg>