<?xml version="1.0" encoding="UTF-8"?>
<svg width="214px" height="214px" viewBox="0 0 214 214" version="1.1" xmlns="http://www.w3.org/2000/svg" xmlns:xlink="http://www.w3.org/1999/xlink">
    <!-- Generator: Sketch 39.1 (31720) - http://www.bohemiancoding.com/sketch -->
    <title>Group Copy 5</title>
    <desc>Created with Sketch.</desc>
    <defs>
        <circle id="path-1" cx="107" cy="107" r="107"></circle>
        <filter x="-50%" y="-50%" width="200%" height="200%" filterUnits="objectBoundingBox" id="filter-2">
            <feGaussianBlur stdDeviation="2" in="SourceAlpha" result="shadowBlurInner1"></feGaussianBlur>
            <feOffset dx="4" dy="0" in="shadowBlurInner1" result="shadowOffsetInner1"></feOffset>
            <feComposite in="shadowOffsetInner1" in2="SourceAlpha" operator="arithmetic" k2="-1" k3="1" result="shadowInnerInner1"></feComposite>
            <feColorMatrix values="0 0 0 0 0   0 0 0 0 0   0 0 0 0 0  0 0 0 0.435603487 0" type="matrix" in="shadowInnerInner1"></feColorMatrix>
        </filter>
        <path d="M85.2659966,95.464 C84.3273252,94.2693274 83.1006708,93.3200035 81.5859966,92.616 C80.0713224,91.9119965 78.6100036,91.56 77.2019966,91.56 C76.4766596,91.56 75.740667,91.6239994 74.9939966,91.752 C74.2473262,91.8800006 73.5753329,92.1253315 72.9779966,92.488 C72.3806603,92.8506685 71.879332,93.3199971 71.4739966,93.896 C71.0686612,94.4720029 70.8659966,95.2079955 70.8659966,96.104 C70.8659966,96.8720038 71.025995,97.5119974 71.3459966,98.024 C71.6659982,98.5360026 72.1353268,98.9839981 72.7539966,99.368 C73.3726664,99.7520019 74.108659,100.103998 74.9619966,100.424 C75.8153342,100.744002 76.7753246,101.074665 77.8419966,101.416 C79.3780043,101.928003 80.9779883,102.49333 82.6419966,103.112 C84.3060049,103.73067 85.8206564,104.551995 87.1859966,105.576 C88.5513368,106.600005 89.6819921,107.869326 90.5779966,109.384 C91.4740011,110.898674 91.9219966,112.786655 91.9219966,115.048 C91.9219966,117.65068 91.4420014,119.901324 90.4819966,121.8 C89.5219918,123.698676 88.231338,125.26666 86.6099966,126.504 C84.9886552,127.74134 83.1326737,128.658664 81.0419966,129.256 C78.9513195,129.853336 76.7966744,130.152 74.5779966,130.152 C71.3353137,130.152 68.1993451,129.586672 65.1699966,128.456 C62.1406481,127.325328 59.62334,125.714677 57.6179966,123.624 L64.7859966,116.328 C65.8953355,117.69334 67.3566542,118.834662 69.1699966,119.752 C70.983339,120.669338 72.7859876,121.128 74.5779966,121.128 C75.3886673,121.128 76.1779928,121.042668 76.9459966,120.872 C77.7140004,120.701332 78.3859937,120.424002 78.9619966,120.04 C79.5379995,119.655998 79.9966616,119.144003 80.3379966,118.504 C80.6793316,117.863997 80.8499966,117.096004 80.8499966,116.2 C80.8499966,115.346662 80.6366654,114.621336 80.2099966,114.024 C79.7833278,113.426664 79.1753339,112.882669 78.3859966,112.392 C77.5966593,111.901331 76.6153358,111.453335 75.4419966,111.048 C74.2686574,110.642665 72.9353374,110.205336 71.4419966,109.736 C69.9913227,109.266664 68.5726702,108.712003 67.1859966,108.072 C65.799323,107.431997 64.562002,106.610672 63.4739966,105.608 C62.3859912,104.605328 61.5113332,103.38934 60.8499966,101.96 C60.18866,100.53066 59.8579966,98.7920102 59.8579966,96.744 C59.8579966,94.2266541 60.3699915,92.072009 61.3939966,90.28 C62.4180017,88.487991 63.7619883,87.0160058 65.4259966,85.864 C67.0900049,84.7119942 68.9673195,83.869336 71.0579966,83.336 C73.1486737,82.802664 75.2606526,82.536 77.3939966,82.536 C79.9540094,82.536 82.5673166,83.0053286 85.2339966,83.944 C87.9006766,84.8826714 90.2366532,86.2693242 92.2419966,88.104 L85.2659966,95.464 Z M122.493999,129 L118.973999,120.104 L101.437999,120.104 L98.1099989,129 L86.2059989,129 L105.213999,83.688 L115.837999,83.688 L134.653999,129 L122.493999,129 Z M110.333999,95.784 L104.573999,111.336 L115.965999,111.336 L110.333999,95.784 Z M146.602001,93.032 L146.602001,129 L135.658001,129 L135.658001,93.032 L122.858001,93.032 L122.858001,83.688 L159.402001,83.688 L159.402001,93.032 L146.602001,93.032 Z" id="path-3"></path>
        <filter x="-50%" y="-50%" width="200%" height="200%" filterUnits="objectBoundingBox" id="filter-4">
            <feGaussianBlur stdDeviation="0.5" in="SourceAlpha" result="shadowBlurInner1"></feGaussianBlur>
            <feOffset dx="3" dy="1" in="shadowBlurInner1" result="shadowOffsetInner1"></feOffset>
            <feComposite in="shadowOffsetInner1" in2="SourceAlpha" operator="arithmetic" k2="-1" k3="1" result="shadowInnerInner1"></feComposite>
            <feColorMatrix values="0 0 0 0 1   0 0 0 0 1   0 0 0 0 1  0 0 0 1 0" type="matrix" in="shadowInnerInner1"></feColorMatrix>
        </filter>
    </defs>
    <g id="Page-1" stroke="none" stroke-width="1" fill="none" fill-rule="evenodd">
        <g id="Tablet-Portrait" transform="translate(-538.000000, -298.000000)">
            <g id="Group-Copy-5" transform="translate(538.000000, 298.000000)">
                <g id="Oval">
                    <use fill="#A80519" fill-rule="evenodd" xlink:href="#path-1"></use>
                    <use fill="black" fill-opacity="1" filter="url(#filter-2)" xlink:href="#path-1"></use>
                </g>
                <g id="SAT">
                    <use fill="#DBCA00" fill-rule="evenodd" xlink:href="#path-3"></use>
                    <use fill="black" fill-opacity="1" filter="url(#filter-4)" xlink:href="#path-3"></use>
                </g>
            </g>
        </g>
    </g>
</svg>