<?xml version="1.0" encoding="UTF-8"?>
<svg width="214px" height="214px" viewBox="0 0 214 214" version="1.1" xmlns="http://www.w3.org/2000/svg" xmlns:xlink="http://www.w3.org/1999/xlink">
    <!-- Generator: Sketch 39.1 (31720) - http://www.bohemiancoding.com/sketch -->
    <title>Group Copy 6</title>
    <desc>Created with Sketch.</desc>
    <defs>
        <circle id="path-1" cx="107" cy="107" r="107"></circle>
        <filter x="-50%" y="-50%" width="200%" height="200%" filterUnits="objectBoundingBox" id="filter-2">
            <feGaussianBlur stdDeviation="2" in="SourceAlpha" result="shadowBlurInner1"></feGaussianBlur>
            <feOffset dx="4" dy="0" in="shadowBlurInner1" result="shadowOffsetInner1"></feOffset>
            <feComposite in="shadowOffsetInner1" in2="SourceAlpha" operator="arithmetic" k2="-1" k3="1" result="shadowInnerInner1"></feComposite>
            <feColorMatrix values="0 0 0 0 0   0 0 0 0 0   0 0 0 0 0  0 0 0 0.435603487 0" type="matrix" in="shadowInnerInner1"></feColorMatrix>
        </filter>
        <path d="M76.3699966,95.464 C75.4313252,94.2693274 74.2046708,93.3200035 72.6899966,92.616 C71.1753224,91.9119965 69.7140036,91.56 68.3059966,91.56 C67.5806596,91.56 66.844667,91.6239994 66.0979966,91.752 C65.3513262,91.8800006 64.6793329,92.1253315 64.0819966,92.488 C63.4846603,92.8506685 62.983332,93.3199971 62.5779966,93.896 C62.1726612,94.4720029 61.9699966,95.2079955 61.9699966,96.104 C61.9699966,96.8720038 62.129995,97.5119974 62.4499966,98.024 C62.7699982,98.5360026 63.2393268,98.9839981 63.8579966,99.368 C64.4766664,99.7520019 65.212659,100.103998 66.0659966,100.424 C66.9193342,100.744002 67.8793246,101.074665 68.9459966,101.416 C70.4820043,101.928003 72.0819883,102.49333 73.7459966,103.112 C75.4100049,103.73067 76.9246564,104.551995 78.2899966,105.576 C79.6553368,106.600005 80.7859921,107.869326 81.6819966,109.384 C82.5780011,110.898674 83.0259966,112.786655 83.0259966,115.048 C83.0259966,117.65068 82.5460014,119.901324 81.5859966,121.8 C80.6259918,123.698676 79.335338,125.26666 77.7139966,126.504 C76.0926552,127.74134 74.2366737,128.658664 72.1459966,129.256 C70.0553195,129.853336 67.9006744,130.152 65.6819966,130.152 C62.4393137,130.152 59.3033451,129.586672 56.2739966,128.456 C53.2446481,127.325328 50.72734,125.714677 48.7219966,123.624 L55.8899966,116.328 C56.9993355,117.69334 58.4606542,118.834662 60.2739966,119.752 C62.087339,120.669338 63.8899876,121.128 65.6819966,121.128 C66.4926673,121.128 67.2819928,121.042668 68.0499966,120.872 C68.8180004,120.701332 69.4899937,120.424002 70.0659966,120.04 C70.6419995,119.655998 71.1006616,119.144003 71.4419966,118.504 C71.7833316,117.863997 71.9539966,117.096004 71.9539966,116.2 C71.9539966,115.346662 71.7406654,114.621336 71.3139966,114.024 C70.8873278,113.426664 70.2793339,112.882669 69.4899966,112.392 C68.7006593,111.901331 67.7193358,111.453335 66.5459966,111.048 C65.3726574,110.642665 64.0393374,110.205336 62.5459966,109.736 C61.0953227,109.266664 59.6766702,108.712003 58.2899966,108.072 C56.903323,107.431997 55.666002,106.610672 54.5779966,105.608 C53.4899912,104.605328 52.6153332,103.38934 51.9539966,101.96 C51.29266,100.53066 50.9619966,98.7920102 50.9619966,96.744 C50.9619966,94.2266541 51.4739915,92.072009 52.4979966,90.28 C53.5220017,88.487991 54.8659883,87.0160058 56.5299966,85.864 C58.1940049,84.7119942 60.0713195,83.869336 62.1619966,83.336 C64.2526737,82.802664 66.3646526,82.536 68.4979966,82.536 C71.0580094,82.536 73.6713166,83.0053286 76.3379966,83.944 C79.0046766,84.8826714 81.3406532,86.2693242 83.3459966,88.104 L76.3699966,95.464 Z M121.277999,111.912 C121.277999,114.64268 120.819337,117.127989 119.901999,119.368 C118.984661,121.608011 117.672674,123.527992 115.965999,125.128 C114.259324,126.728008 112.200678,127.975996 109.789999,128.872 C107.37932,129.768004 104.702014,130.216 101.757999,130.216 C98.7713173,130.216 96.0833441,129.768004 93.6939989,128.872 C91.3046536,127.975996 89.2780072,126.728008 87.6139989,125.128 C85.9499905,123.527992 84.6700033,121.608011 83.7739989,119.368 C82.8779944,117.127989 82.4299989,114.64268 82.4299989,111.912 L82.4299989,83.688 L93.3099989,83.688 L93.3099989,111.016 C93.3099989,112.25334 93.4699973,113.426661 93.7899989,114.536 C94.1100005,115.645339 94.6006622,116.637329 95.2619989,117.512 C95.9233355,118.386671 96.7979934,119.079997 97.8859989,119.592 C98.9740043,120.104003 100.285991,120.36 101.821999,120.36 C103.358007,120.36 104.669993,120.104003 105.757999,119.592 C106.846004,119.079997 107.731329,118.386671 108.413999,117.512 C109.096669,116.637329 109.587331,115.645339 109.885999,114.536 C110.184667,113.426661 110.333999,112.25334 110.333999,111.016 L110.333999,83.688 L121.277999,83.688 L121.277999,111.912 Z M151.530001,129 L133.290001,99.368 L133.098001,99.368 L133.354001,129 L122.730001,129 L122.730001,83.688 L135.210001,83.688 L153.386001,113.256 L153.578001,113.256 L153.322001,83.688 L163.946001,83.688 L163.946001,129 L151.530001,129 Z" id="path-3"></path>
        <filter x="-50%" y="-50%" width="200%" height="200%" filterUnits="objectBoundingBox" id="filter-4">
            <feGaussianBlur stdDeviation="0.5" in="SourceAlpha" result="shadowBlurInner1"></feGaussianBlur>
            <feOffset dx="3" dy="1" in="shadowBlurInner1" result="shadowOffsetInner1"></feOffset>
            <feComposite in="shadowOffsetInner1" in2="SourceAlpha" operator="arithmetic" k2="-1" k3="1" result="shadowInnerInner1"></feComposite>
            <feColorMatrix values="0 0 0 0 1   0 0 0 0 1   0 0 0 0 1  0 0 0 1 0" type="matrix" in="shadowInnerInner1"></feColorMatrix>
        </filter>
    </defs>
    <g id="Page-1" stroke="none" stroke-width="1" fill="none" fill-rule="evenodd">
        <g id="Tablet-Portrait" transform="translate(-290.000000, -535.000000)">
            <g id="Group-Copy-6" transform="translate(290.000000, 535.000000)">
                <g id="Oval">
                    <use fill="#A80519" fill-rule="evenodd" xlink:href="#path-1"></use>
                    <use fill="black" fill-opacity="1" filter="url(#filter-2)" xlink:href="#path-1"></use>
                </g>
                <g id="SUN">
                    <use fill="#DBCA00" fill-rule="evenodd" xlink:href="#path-3"></use>
                    <use fill="black" fill-opacity="1" filter="url(#filter-4)" xlink:href="#path-3"></use>
                </g>
            </g>
        </g>
    </g>
</svg>